{"title":"CMA Music Festival 2011 (Country's Night To Rock)Xvid-IARG","uid":6606929,"size":2785720627,"categoryP":"video","categoryS":"tv_shows","magnet":"?xt=urn:btih:e9fc736e87328f83016df4862447d7500383176a&amp;dn=CMA+Music+Festival+2011+%28Country%5C%27s+Night+To+Rock%29Xvid-IARG&amp;tr=udp%3A%2F%2Ftracker.openbittorrent.com%3A80&amp;tr=udp%3A%2F%2Fopen.demonii.com%3A1337&amp;tr=udp%3A%2F%2Ftracker.coppersurfer.tk%3A6969&amp;tr=udp%3A%2F%2Fexodus.desync.com%3A6969","seeders":0,"leechers":1,"uploader":"scoobey","files":-1,"time":1313435361,"description":" &lt;a href=&quot;http://i1228.photobucket.com/albums/ee447/austintxut1/CMA.png&quot; rel=&quot;nofollow&quot; target=&quot;_NEW&quot;&gt;http://i1228.photobucket.com/albums/ee447/austintxut1/CMA.png&lt;/a&gt;\n\n &lt;a href=&quot;\nhttp://i1178.photobucket.com/albums/x374/IARG1/CMAMusicFestival2011CountrysNightToRockXvid-IARGavi_thumbs_20110815_125038.jpg&quot; rel=&quot;nofollow&quot; target=&quot;_NEW&quot;&gt;\nhttp://i1178.photobucket.com/albums/x374/IARG1/CMAMusicFestival2011CountrysNightToRockXvid-IARGavi_thumbs_20110815_125038.jpg&lt;/a&gt;\n\n &lt;a href=&quot;\nhttp://www.cmaworld.com/cma-music-festival/music-fest-tv&quot; rel=&quot;nofollow&quot; target=&quot;_NEW&quot;&gt;\nhttp://www.cmaworld.com/cma-music-festival/music-fest-tv&lt;/a&gt;\n\n\nProgram Information\n\nProgram / Time / Channel\n    CMA Music Festival 2011 (Country's Night To Rock)Xvid-IARG 8:00 - 11:00pm on KETVDT\n\n    Series/Special. Lauren Alaina, Jason Aldean, Sara Evans. Highlights of the four-day event include performances by Lauren Alaina, Jason Aldean and Sara Evans. \n\n\nCMA Music Festival 2011 (Country's Night To Rock)Xvid-IARG.\n\n\nFormat                           : AVI\nFormat/Info                      : Audio Video Interleave\nFormat profile                   : OpenDML\nFile size                        : 2.59 GiB\nDuration                         : 2h 6mn\nOverall bit rate                 : 2 928 Kbps\nWriting application              : VirtualDubMod 1.5.4.1 (build 2178/release)\nWriting library                  : VirtualDub build 32842/release\n\n\nVideo\nID                               : 0\nFormat                           : MPEG-4 Visual\nFormat profile                   : Advanced Simple@L5\nFormat settings, BVOP            : 1\nFormat settings, QPel            : No\nFormat settings, GMC             : No warppoints\nFormat settings, Matrix          : Custom\nCodec ID                         : XVID\nCodec ID/Hint                    : XviD\nDuration                         : 2h 6mn\nBit rate                         : 2 786 Kbps\nWidth                            : 624 pixels\nHeight                           : 352 pixels\nDisplay aspect ratio             : 16:9\nFrame rate                       : 29.970 fps\nColor space                      : YUV\nChroma subsampling               : 4:2:0\nBit depth                        : 8 bits\nScan type                        : Progressive\nCompression mode                 : Lossy\nBits/(Pixel*Frame)               : 0.423\nStream size                      : 2.47 GiB (95%)\nWriting library                  : XviD 64\n\n\nAudio\nID                               : 1\nFormat                           : MPEG Audio\nFormat version                   : Version 1\nFormat profile                   : Layer 3\nMode                             : Joint stereo\nMode extension                   : MS Stereo\nCodec ID                         : 55\nCodec ID/Hint                    : MP3\nDuration                         : 2h 6mn\nBit rate mode                    : Constant\nBit rate                         : 128 Kbps\nChannel(s)                       : 2 channels\nSampling rate                    : 48.0 KHz\nCompression mode                 : Lossy\nStream size                      : 116 MiB (4%)\nAlignment                        : Aligned on interleaves\nInterleave, duration             : 33 ms (1.00 video frame)\nInterleave, preload duration     : 504 ms\nWriting library                  : LAME3.98r\nEncoding settings                : -m j -V 4 -q 2 -lowpass 17 -b 128\n\n\n\n","torrent":{"xt":"urn:btih:e9fc736e87328f83016df4862447d7500383176a","amp;dn":"CMA+Music+Festival+2011+%28Country%5C%27s+Night+To+Rock%29Xvid-IARG","amp;tr":["udp%3A%2F%2Ftracker.openbittorrent.com%3A80","udp%3A%2F%2Fopen.demonii.com%3A1337","udp%3A%2F%2Ftracker.coppersurfer.tk%3A6969","udp%3A%2F%2Fexodus.desync.com%3A6969"],"infoHash":"e9fc736e87328f83016df4862447d7500383176a","infoHashBuffer":{"type":"Buffer","data":[233,252,115,110,135,50,143,131,1,109,244,134,36,71,215,80,3,131,23,106]},"announce":[],"urlList":[]}}